# xmcd
#
# Track frame offsets: 
#        151
#        23854
#        36435
#        46207
#        59711
#        79357
#        89039
#        102967
#        117346
#        134559
#        150046
#        167861
#        181204
#        196553
#        215883
#        232756
#        243993
#        261474
#        278692
#
# Disc length: 4017 seconds
#
# Revision: 4
# Processed by: cddbd v1.5.2PL0 Copyright (c) Steve Scherf et al.
# Submitted via: ExactAudioCopy v1.0b6
#
DISCID=0e0faf13
DTITLE=Teresa Teng - Endless Love
DYEAR=2004
DGENRE=Pop
TTITLE0=Sentiment
TTITLE1=Long Deep Night
TTITLE2=You're Unforgettable
TTITLE3=FLowers and Grass Know No Love
TTITLE4=Yearn for You by the Window
TTITLE5=Three Years
TTITLE6=While the Leaves Rustle
TTITLE7=When I was Young
TTITLE8=Predistined Love
TTITLE9=I Illuminate My Heart
TTITLE10=Love Lake
TTITLE11=When A Boy Loves A Girl
TTITLE12=My Love is so Deep
TTITLE13=Be Love More Beautiful
TTITLE14=Whether
TTITLE15=Where Our First Love Began
TTITLE16=Spring of the North
TTITLE17=Missing You
TTITLE18=Wish towards the Star
EXTD=
EXTT0=
EXTT1=
EXTT2=
EXTT3=
EXTT4=
EXTT5=
EXTT6=
EXTT7=
EXTT8=
EXTT9=
EXTT10=
EXTT11=
EXTT12=
EXTT13=
EXTT14=
EXTT15=
EXTT16=
EXTT17=
EXTT18=
PLAYORDER=
